<?xml version="1.0" encoding="UTF-8" standalone="no"?>
<!-- Created with Inkscape (http://www.inkscape.org/) -->

<svg
   xmlns:dc="http://purl.org/dc/elements/1.1/"
   xmlns:cc="http://creativecommons.org/ns#"
   xmlns:rdf="http://www.w3.org/1999/02/22-rdf-syntax-ns#"
   xmlns:svg="http://www.w3.org/2000/svg"
   xmlns="http://www.w3.org/2000/svg"
   xmlns:sodipodi="http://sodipodi.sourceforge.net/DTD/sodipodi-0.dtd"
   xmlns:inkscape="http://www.inkscape.org/namespaces/inkscape"
   width="210mm"
   height="297mm"
   viewBox="0 0 210 297"
   version="1.1"
   id="svg8"
   inkscape:version="0.92.4 (5da689c313, 2019-01-14)"
   sodipodi:docname="bnm,.svg">
  <defs
     id="defs2" />
  <sodipodi:namedview
     id="base"
     pagecolor="#ffffff"
     bordercolor="#666666"
     borderopacity="1.0"
     inkscape:pageopacity="0.0"
     inkscape:pageshadow="2"
     inkscape:zoom="0.35"
     inkscape:cx="-20.565495"
     inkscape:cy="484.35785"
     inkscape:document-units="mm"
     inkscape:current-layer="layer2"
     showgrid="false"
     inkscape:window-width="1366"
     inkscape:window-height="705"
     inkscape:window-x="-8"
     inkscape:window-y="-8"
     inkscape:window-maximized="1" />
  <metadata
     id="metadata5">
    <rdf:RDF>
      <cc:Work
         rdf:about="">
        <dc:format>image/svg+xml</dc:format>
        <dc:type
           rdf:resource="http://purl.org/dc/dcmitype/StillImage" />
        <dc:title></dc:title>
      </cc:Work>
    </rdf:RDF>
  </metadata>
  <g
     inkscape:label="Layer 1"
     inkscape:groupmode="layer"
     id="layer1"
     style="display:inline" />
  <g
     inkscape:groupmode="layer"
     id="layer2"
     inkscape:label="Layer 2">
    <path
       style="fill:none;stroke:#000000;stroke-width:0.26458332;stroke-linecap:butt;stroke-linejoin:miter;stroke-opacity:1;stroke-miterlimit:4;stroke-dasharray:none;fill-opacity:1"
       d="m 73.091145,26.39267 c -0.200582,0.0387 -0.392826,0.145363 -0.54334,0.283481 -0.226943,0.208252 -0.416424,0.482045 -0.496094,0.779576 -0.04689,0.175116 0.02363,0.543341 0.02363,0.543341 h -0.354354 c 0,0 -0.189163,0.169842 -0.236236,0.283482 -0.03329,0.08036 -0.05954,0.180645 -0.02363,0.259861 0.04423,0.09755 0.259858,0.188986 0.259858,0.188986 l 0.330729,0.09449 c 0,0 -0.02363,0.425225 -0.02363,0.496094 0,0.07087 -0.04725,0.354353 -0.04725,0.354353 0,0 -0.211649,0.127398 -0.330729,0.14174 -0.09511,0.01146 -0.207241,-0.105254 -0.283482,-0.04725 -0.11973,0.09109 -0.0663,0.299615 -0.04725,0.448847 0.0085,0.06674 0.02188,0.14287 0.07087,0.188989 0.07798,0.07342 0.200369,0.08561 0.307105,0.09449 0.118753,0.0099 0.354353,-0.04725 0.354353,-0.04725 l 0.14174,-0.33073 0.07087,-0.02363 0.07087,0.472472 c 0,0 -0.348386,0.201519 -0.472472,0.354351 -0.08216,0.101193 -0.121039,0.231775 -0.165364,0.354354 -0.05261,0.14549 -0.136073,0.295183 -0.118118,0.448847 0.01554,0.132962 0.188989,0.354351 0.188989,0.354351 0,0 -0.44987,0.145908 -0.566965,0.330729 -0.194591,0.307141 -0.263183,0.764591 -0.09449,1.086684 0.05891,0.112479 0.293934,0.06746 0.330729,0.188986 0.05103,0.168525 -0.195781,0.301102 -0.236236,0.472472 -0.01628,0.06897 0.03901,0.153446 0,0.212611 -0.09904,0.150197 -0.397054,0.06241 -0.496094,0.212611 -0.09537,0.144627 0,0.519716 0,0.519716 0,0 -0.08193,0.152361 -0.09449,0.236236 -0.01404,0.09378 0.02363,0.283483 0.02363,0.283483 l -16.063986,40.4907 -0.330729,-4.181361 0.354353,-0.188987 c 0,0 0.404893,-0.587544 0.33073,-0.897694 -0.06997,-0.292635 -0.560358,-0.330821 -0.661459,-0.614212 -0.07746,-0.217119 0.0093,-0.470888 0.09449,-0.68508 0.02504,-0.06294 0.05053,-0.160867 0.118118,-0.165365 0.17232,-0.01147 0.202085,0.296485 0.354351,0.377976 0.08446,0.0452 0.195989,0.08626 0.283482,0.04725 0.09377,-0.04181 0.146513,-0.158933 0.165365,-0.259858 0.01474,-0.07894 -0.0032,-0.169122 -0.04725,-0.236236 -0.06837,-0.104054 -0.229016,-0.115636 -0.307104,-0.212611 -0.0908,-0.112758 -0.144753,-0.258304 -0.165365,-0.4016 -0.02142,-0.14891 -0.05656,-0.339958 0.04725,-0.448848 0.07147,-0.07497 0.211338,-0.0078 0.307104,-0.04725 0.09903,-0.04079 0.237028,-0.08435 0.259858,-0.188989 0.03081,-0.141234 -0.08783,-0.304997 -0.212611,-0.377976 -0.09516,-0.05565 -0.22343,0.02533 -0.330721,0 -0.03427,-0.0081 -0.0796,-0.01534 -0.09449,-0.04725 -0.07189,-0.154036 0.103265,-0.326757 0.118118,-0.496094 0.01172,-0.133585 0.03534,-0.281166 -0.02363,-0.4016 -0.03681,-0.07518 -0.116134,-0.124143 -0.188987,-0.165365 -0.201566,-0.114052 -0.430172,-0.200633 -0.661458,-0.212611 -0.152691,-0.0079 -0.31206,0.02619 -0.448847,0.0945 -0.149776,0.0748 -0.267587,0.204865 -0.377976,0.330729 -0.05616,0.06404 -0.109147,0.133919 -0.141742,0.212611 -0.0461,0.111287 -0.0907,0.235538 -0.07087,0.354352 0.018,0.107904 0.14736,0.175578 0.165365,0.283482 0.01322,0.07921 -0.01568,0.162398 -0.04725,0.236236 -0.03779,0.08838 -0.165364,0.236236 -0.165364,0.236236 0,0 0.01076,-0.313086 -0.09449,-0.401601 -0.102629,-0.08631 -0.274519,-0.06644 -0.4016,-0.02363 -0.0688,0.02318 -0.126173,0.08063 -0.165365,0.141743 -0.03095,0.04826 -0.0393,0.108591 -0.04725,0.165364 -0.0098,0.07018 -0.03973,0.153926 0,0.212611 0.07132,0.105344 0.22767,0.13011 0.354354,0.14174 0.07997,0.0073 0.175423,-0.0997 0.236235,-0.04725 0.119411,0.102987 -0.02363,0.472472 -0.02363,0.472472 l -0.4016,0.448844 c 0,0 -0.181035,0.09958 -0.212612,0.188989 -0.0319,0.09033 -0.0048,0.203037 0.04725,0.283483 0.06166,0.09537 0.170041,0.183647 0.283483,0.188986 0.116137,0.0055 0.224356,-0.08369 0.307107,-0.165364 0.0577,-0.05695 0.118115,-0.212612 0.118115,-0.212612 l 0.02363,0.59059 c 0,0 -0.517722,0.08198 -0.685083,0.259858 -0.254297,0.270282 -0.468739,0.71857 -0.330729,1.063059 0.0603,0.150517 0.425225,0.236233 0.425225,0.236233 l 0.02363,0.141743 c 0,0 -2.9032,9.758279 -5.031806,14.363094 -0.248775,0.538176 -0.650978,0.996405 -0.897695,1.535527 -0.547133,1.195586 -1.27567,3.732517 -1.27567,3.732517 l 0.803199,0.496094 0.0945,0.09449 c 0,0 -0.08141,0.86503 -0.212612,1.27567 -0.103966,0.325407 -0.380018,0.58671 -0.448847,0.921316 -0.03336,0.162157 0.137874,0.376278 0.02363,0.496094 -0.04891,0.05129 -0.149457,-0.03216 -0.212611,0 -0.09544,0.0486 -0.204912,0.153944 -0.188986,0.259858 0.01171,0.07787 0.115488,0.113481 0.188986,0.141743 0.08118,0.03122 0.259858,0.02363 0.259858,0.02363 l 0.07087,-0.04725 c 0,0 0.361692,0.107833 0.377976,0.259858 0.01958,0.182787 -0.348444,0.220156 -0.377976,0.401601 -0.01811,0.111282 0.141743,0.307107 0.141743,0.307107 l -0.73233,5.598765 -1.441034,3.35454 0.212611,0.21261 0.283483,0.11812 0.118117,0.25986 -0.259857,1.84263 c 0,0 -0.649995,0.75055 -0.637837,1.2048 0.0025,0.0918 0.155356,0.14542 0.141743,0.23624 -0.0157,0.10477 -0.257857,0.1089 -0.236236,0.21261 0.04066,0.19502 0.407286,0.0699 0.566965,0.18899 0.07704,0.0575 0.150085,0.14133 0.165365,0.23623 0.01307,0.0812 -0.07087,0.23624 -0.07087,0.23624 0,0 -0.0836,0.0744 -0.118118,0.11812 -0.0745,0.0943 -0.218724,0.19064 -0.188989,0.3071 0.01571,0.0615 0.135631,0.0384 0.165365,0.0945 0.04808,0.0907 -0.01211,0.20508 -0.02363,0.3071 -0.239492,2.12026 -0.94494,6.3311 -0.94494,6.3311 l -1.157552,-0.0472 c 0,0 0.215073,1.27309 0.188989,1.9135 -0.0036,0.088 0.02034,0.20345 -0.04725,0.25986 -0.04232,0.0353 -0.122367,-0.0345 -0.165364,0 -0.05663,0.0454 -0.04584,0.14002 -0.04725,0.21261 -0.0017,0.088 -0.01671,0.19936 0.04725,0.25986 0.04612,0.0436 0.128228,0.005 0.188989,0.0236 0.05056,0.0153 0.111117,0.0279 0.14174,0.0709 0.105878,0.14883 0.146436,0.37706 0.07087,0.54334 -0.05873,0.12924 -0.354351,0.0943 -0.354351,0.23624 0,0.14196 0.354351,0.23624 0.354351,0.23624 l -1.039434,7.86663 -0.354354,-0.0472 0.259861,1.55915 -3.307292,3.54353 c 0,0 0.290802,1.10912 0.307105,1.67727 0.04393,1.53085 -0.566965,4.55933 -0.566965,4.55933 0,0 -1.545052,0.93216 -1.771761,1.72452 -0.153931,0.538 0.370147,1.07132 0.401597,1.63002 0.127188,2.25949 -0.874069,6.7327 -0.874069,6.7327 l -0.236236,0.14175 0.165365,0.37797 -1.039434,8.17374 c 0,0 -0.617662,0.60399 -0.779577,0.99218 -0.219958,0.52734 -0.343888,1.14481 -0.212611,1.7009 0.04566,0.19343 0.330729,0.49609 0.330729,0.49609 0,0 -2.179759,2.13456 -2.385973,3.54353 -0.07286,0.4978 0.404811,0.93986 0.448845,1.44103 0.147295,1.67642 0.107985,3.4996 -0.637834,5.00819 -0.397303,0.80364 -1.767156,1.00542 -1.913504,1.88988 -0.06611,0.39955 0.543341,1.08668 0.543341,1.08668 l -0.779576,6.04762 -1.913504,1.9135 0.54334,1.11031 -0.850446,6.44922 c 0,0 -0.787471,0.82305 -1.228423,1.18117 -0.488279,0.39656 -1.350289,0.46972 -1.559152,1.06306 -0.06286,0.17857 0.0786,0.37508 0.165365,0.54334 0.218713,0.42417 0.87407,1.13393 0.87407,1.13393 l -0.8032,6.18936 -1.960751,2.05524 0.566964,0.66146 -2.976562,23.15104 -0.87407,-0.0709 -0.09449,0.68508 0.661458,0.56697 -2.362351,17.85937 -2.126116,-0.0472 -0.04725,2.83482 -1.181176,0.8032 -0.283482,5.00818 9.071428,0.14174 -0.04725,0.66146 16.111234,-0.0945 0.377975,-0.51972 27.686757,0.28348 0.141742,0.56697 16.111233,-0.28349 c 0,0 0.202972,0.083 -0.09449,0.0378 -1.549738,-0.23571 0.985037,0.24266 3.732514,-0.27537 1.893242,-0.35697 4.01254,0.51072 5.764139,-0.29159 0.161995,-0.0742 0.213779,0.38232 0.377975,0.31313 1.356905,-0.57182 3.363751,-0.23572 5.326943,-0.23412 3.181615,0.003 6.286155,-0.27717 6.286155,-0.27717 1.34559,-0.10919 0.0746,-0.14574 0,0 l 4.21466,-0.17032 0.33072,0.0472 28.15923,-0.56697 0.56697,0.56697 15.40252,-0.37798 0.47247,-0.37798 26.17486,-0.56696 1.13392,0.0945 15.40253,-0.28349 v -1.5119 l 4.7247,-0.18899 -0.18898,-3.96875 -1.6064,-0.94495 -0.0945,-0.75595 -3.1183,-1.41741 -1.51191,-17.95387 0.94494,-1.13392 -1.22842,-0.47248 -2.74033,-23.15104 0.85045,-0.0945 -2.26786,-1.79539 -0.85044,-6.80357 1.70089,-0.85045 -3.1183,-2.36235 -0.75596,-6.89806 0.47247,-0.75596 -1.79538,-1.88988 -0.75595,-6.2366 0.47247,-0.75596 -1.51191,-1.6064 -0.94494,-5.95312 0.75595,-0.37798 -3.40178,-5.66964 -1.13393,-8.03199 1.98437,-1.51191 -1.13392,-0.94494 -1.03944,-1.03943 -0.85045,-5.95313 0.66146,-0.18898 -1.79538,-1.79539 -0.75596,-6.14211 0.56697,-0.37798 -2.55134,-2.83482 -0.94494,-11.1503 1.03943,-2.36235 -2.17336,0.0945 -1.22842,-9.73288 -0.85045,-3.59078 1.03943,-1.70089 -0.75595,-0.0945 -0.47247,-1.511907 -0.66146,-0.661459 -0.47247,-6.614583 0.37798,-0.944941 -0.28348,-1.700892 0.28348,-3.023809 -1.32292,-1.889882 -5.57515,-13.607142 0.47247,-1.133928 -0.75595,-0.283482 -0.18899,-1.700893 0.85045,-0.283482 -0.18899,-0.472472 -0.56696,0.0945 -0.28348,-0.850447 -0.28349,-0.850445 -1.13392,0.09449 -0.66146,0.755952 v 0.661458 l 0.56696,0.377976 -1.13393,1.13393 -0.18899,0.472469 1.22843,-0.377976 0.37797,0.850448 -0.47247,0.850444 -0.28348,0.850448 h 0.66146 L 158.65551,83.632501 143.53647,45.456908 138.2448,32.8892 l 0.37798,-0.661459 -0.56697,-0.755954 0.0945,-0.850445 -0.28349,-1.039434 v -1.417413 l 0.75596,-0.377975 -0.85045,-0.472469 -0.47247,-0.944941 -1.41741,-0.09449 -0.75595,1.039435 -0.18899,1.039434 h 0.47247 l -0.0945,1.322916 -0.75595,0.18899 0.47247,0.661458 0.94494,-0.661458 v 1.41741 l -0.28348,3.590774 -11.43378,56.885416 -0.47247,-2.929316 0.56697,-1.41741 -0.85045,-0.188989 0.37798,-0.661459 -0.18899,-0.377976 V 85.52232 l 0.94494,-0.188989 -0.28348,-0.755952 -0.56697,0.09449 -0.0945,-1.039435 -1.03944,-0.283482 -0.66146,0.755954 -0.18898,0.661459 -0.66146,0.472469 1.03943,0.472471 -1.41741,0.944939 1.51191,-0.377976 0.37797,1.039434 -1.03943,0.0945 -0.28348,0.944941 0.66145,0.09449 -2.36235,13.985117 -1.13393,1.98438 0.18899,3.30729 0.85045,0.56697 0.56696,21.45014 -12.18973,-11.15029 0.28348,-0.75596 -0.56696,-0.28348 -0.37798,-0.94494 1.32292,-0.18899 0.66146,-1.13393 0.37797,-1.13392 -0.66146,-1.22843 -2.36235,-0.18899 -1.70089,1.13393 -0.47247,0.47247 -0.37797,1.22843 0.85044,0.85044 1.22842,0.47247 -0.0945,0.94494 -0.47247,0.18899 0.28348,1.03944 -0.66146,0.66145 -3.02381,-12.00074 0.28349,-0.37798 -0.18899,-0.66145 0.18899,-0.75596 0.18898,-1.70089 h -1.22842 l -0.18899,0.75595 -0.0945,0.37798 -0.28348,1.13393 v 0.85044 l 0.47247,0.37798 -1.606402,6.04762 -8.598958,-40.254466 -0.377976,-1.039434 0.0945,-0.661458 -0.472472,-0.377979 0.09449,-1.322917 0.18899,-1.322916 -0.283483,-1.322917 -0.944941,0.0945 c 0,0 -0.188986,0.188987 -0.188986,0.944941 0,0.755952 -0.0945,1.41741 -0.0945,1.41741 l -0.566963,3.779761 -2.362351,8.220982 -1.417412,-10.299851 0.472472,-0.755951 -0.283483,-1.13393 0.09452,-2.078869 -0.47247,-1.606399 -1.228423,0.47247 -0.09449,0.850447 -0.377976,0.188988 0.283482,1.039435 -0.283482,1.511904 -0.47247,0.188988 0.377976,1.133929 -1.511905,4.819196 -7.087054,-41.293898 c 0,0 0.276799,-0.220628 0.283483,-0.377977 0.01261,-0.296884 -0.402492,-0.467158 -0.472471,-0.755952 -0.08932,-0.368619 0.07873,-0.75497 0.09449,-1.133929 0.01047,-0.251766 0.01566,-0.504455 0,-0.755952 -0.01578,-0.253454 -0.07871,-0.502498 -0.09449,-0.755952 -0.02153,-0.345809 -0.06552,-0.699208 0,-1.039435 0.06415,-0.333123 0.313823,-0.611817 0.377977,-0.94494 0.113174,-0.587664 0.15975,-1.21864 0,-1.795387 -0.09805,-0.353999 -0.256729,-0.748261 -0.566965,-0.944941 -0.200516,-0.127121 -0.475596,-0.115851 -0.708712,-0.07087 z"
       id="path831"
       inkscape:connector-curvature="0"
       sodipodi:nodetypes="sssccssccscssaasccccssscsssasscsccccsssssssssssssssssssssssssacsssssssccasssccssccsscccssssssccsscccccccssssscssssccssssssssscccccscssccccsscsssscccccsssccccccccccccccccccccssssscccccccccccccccccccccccccccccccccccccccccccccccccccccccccccccccccccccccccccccccccccccccccccccccccccccccccccccccccccccccccccccccccccccccccccccccccccccccccccccccccccccscccccccccccccccccssssssssss" />
    <path
       style="fill:#00f100;stroke:#000000;stroke-width:0.26458332px;stroke-linecap:butt;stroke-linejoin:miter;stroke-opacity:1;fill-opacity:1;opacity:0"
       d="m 58.932931,115.79126 c 0,0 -0.03523,-13.47327 2.00452,-19.777946 0.301036,-0.930476 1.469983,-2.539061 1.469983,-2.539061 0,0 1.447069,-0.970323 2.271792,-1.202714 0.687343,-0.19368 1.427925,-0.207954 2.138156,-0.133633 0.827648,0.08661 1.686657,0.248798 2.405425,0.668174 0.761762,0.444461 1.483403,1.078623 1.870887,1.870887 0.473356,0.967843 0.388774,2.129904 0.400905,3.207234 0.06907,6.134049 -1.870887,18.307959 -1.870887,18.307959 z"
       id="path833"
       inkscape:connector-curvature="0"
       sodipodi:nodetypes="cscsassscc" />
    <path
       style="fill:#00f100;stroke:#000000;stroke-width:0.26458332px;stroke-linecap:butt;stroke-linejoin:miter;stroke-opacity:1;fill-opacity:1;opacity:0"
       d="m 145.66189,115.39035 c 0,0 -3.06255,-13.57495 -1.33635,-20.04521 0.1656,-0.620726 0.59449,-1.170617 1.06908,-1.603618 0.89818,-0.819475 1.99799,-1.610811 3.20724,-1.737252 1.24759,-0.13045 2.5783,0.352869 3.60813,1.069078 0.91426,0.635835 1.59877,1.635623 2.00453,2.672697 2.38209,6.088385 2.00452,19.510675 2.00452,19.510675 z"
       id="path835"
       inkscape:connector-curvature="0"
       sodipodi:nodetypes="cssssscc" />
    <path
       style="fill:#00f100;stroke:#000000;stroke-width:0.26458332px;stroke-linecap:butt;stroke-linejoin:miter;stroke-opacity:1;fill-opacity:1;opacity:0"
       d="m 49.514881,184.93006 c 0,0 -0.737487,-13.47587 2.362351,-19.0878 0.963321,-1.74399 2.849215,-2.8867 4.630208,-3.77976 1.16092,-0.58213 2.483166,-1.01879 3.779761,-0.94494 1.343419,0.0765 2.676118,0.64761 3.779763,1.41741 0.989154,0.68995 1.960781,1.60313 2.362351,2.74032 2.256127,6.38902 -0.661458,20.31623 -0.661458,20.31623 L 49.514881,185.875 Z"
       id="path837"
       inkscape:connector-curvature="0"
       sodipodi:nodetypes="csssssccc" />
    <path
       style="fill:#00f100;stroke:#000000;stroke-width:0.26458332px;stroke-linecap:butt;stroke-linejoin:miter;stroke-opacity:1;fill-opacity:1;opacity:0"
       d="m 147.5997,185.68601 c 0,0 -2.3363,-14.01589 -0.18899,-20.50521 0.40966,-1.23801 1.27989,-2.39113 2.36235,-3.1183 1.21769,-0.81802 2.7864,-1.19092 4.25224,-1.13393 1.80174,0.07 3.62979,0.75528 5.10267,1.79538 0.85992,0.60725 1.57925,1.48521 1.98438,2.45685 2.63441,6.31823 2.26786,20.41072 2.26786,20.41072 z"
       id="path839"
       inkscape:connector-curvature="0"
       sodipodi:nodetypes="cssssscc" />
    <path
       style="fill:#00f100;stroke:#000000;stroke-width:0.26458332px;stroke-linecap:butt;stroke-linejoin:miter;stroke-opacity:1;fill-opacity:1;opacity:0"
       d="m 38.506331,254.00528 c 0,0 0.521522,-20.97822 2.315096,-31.2776 0.40381,-2.31883 0.815856,-4.70918 1.889882,-6.80358 1.124574,-2.19297 2.666464,-4.27501 4.630208,-5.76413 2.428805,-1.84178 5.362151,-3.63599 8.409972,-3.59078 2.77599,0.0412 5.293465,1.89228 7.559521,3.49628 1.363558,0.96518 2.710384,2.1166 3.496281,3.59078 0.863122,1.61904 0.989189,3.55714 1.133927,5.38616 0.927971,11.72657 -1.748131,35.24635 -1.748131,35.24635 z"
       id="path841"
       inkscape:connector-curvature="0"
       sodipodi:nodetypes="cssssssscc" />
    <path
       style="fill:#00f100;stroke:#000000;stroke-width:0.26458332px;stroke-linecap:butt;stroke-linejoin:miter;stroke-opacity:1;fill-opacity:1;opacity:0"
       d="m 82.446063,254.57224 c 0,0 -1.161974,-20.16906 0.674759,-30.00228 0.721843,-3.86449 2.001816,-7.7114 4.009043,-11.09169 1.063361,-1.79076 2.617931,-3.25851 4.142676,-4.67722 2.093754,-1.94814 4.316459,-3.82089 6.815373,-5.21175 3.289096,-1.83067 6.794016,-3.91741 10.557146,-4.00905 3.74596,-0.0912 7.42612,1.63534 10.69078,3.47451 2.61414,1.47269 4.81688,3.64195 6.81538,5.87993 2.26311,2.5343 4.56789,5.23218 5.74629,8.41899 1.41434,3.82487 1.0235,8.09479 1.33635,12.16076 0.60032,7.80219 1.03567,23.4529 1.03567,23.4529 z"
       id="path843"
       inkscape:connector-curvature="0"
       sodipodi:nodetypes="cssssssssscc" />
    <path
       style="fill:#00f100;stroke:#000000;stroke-width:0.26458332px;stroke-linecap:butt;stroke-linejoin:miter;stroke-opacity:1;fill-opacity:1;opacity:0"
       d="m 152.98587,252.96584 -2.55135,-27.68682 c 0,0 -0.45421,-4.93996 -0.0945,-7.37054 0.29022,-1.96101 0.81863,-3.9446 1.79538,-5.66964 0.89059,-1.57287 2.13627,-2.99017 3.59078,-4.06325 1.72431,-1.27213 3.71684,-2.5802 5.85863,-2.64583 2.66047,-0.0815 5.19191,1.45002 7.46503,2.83482 1.40959,0.85873 2.72094,1.96772 3.68527,3.30729 1.3435,1.86629 2.74033,6.3311 2.74033,6.3311 l 2.15856,34.39642 z"
       id="path845"
       inkscape:connector-curvature="0"
       sodipodi:nodetypes="ccssssssccc" />
    <path
       style="fill:#00f100;stroke:#000000;stroke-width:0.26458332px;stroke-linecap:butt;stroke-linejoin:miter;stroke-opacity:1;fill-opacity:1;opacity:0"
       d="m 107.01451,142.83296 c -1.04959,-0.0106 -1.91951,-0.87456 -2.78758,-1.46466 -0.85893,-0.58388 -1.67987,-1.24873 -2.36235,-2.03162 -0.59134,-0.67834 -1.13461,-1.43067 -1.46465,-2.26786 -0.22886,-0.58054 -0.30024,-1.21935 -0.33073,-1.84263 -0.0386,-0.78902 -0.023,-1.60137 0.18898,-2.36235 0.2363,-0.84809 0.64642,-1.66297 1.18118,-2.36235 0.71816,-0.93923 1.65945,-1.71047 2.64583,-2.36235 0.95807,-0.63316 3.11831,-1.46466 3.11831,-1.46466 0,0 1.85639,0.56419 2.69308,1.03943 0.64377,0.36567 1.21066,0.86099 1.74814,1.37017 0.60768,0.57569 1.22413,1.1714 1.65364,1.88988 0.4833,0.80847 0.88116,1.71048 0.99219,2.64583 0.12158,1.02422 -0.0192,2.10404 -0.37798,3.07106 -0.3555,0.95829 -0.83258,1.7481 -1.46465,2.55133 -0.51692,0.65689 -1.18264,1.3263 -1.93713,1.84264 -1.07529,0.73589 -2.19336,1.76126 -3.49628,1.74814 z"
       id="path847"
       inkscape:connector-curvature="0"
       sodipodi:nodetypes="ssssssaacsssassss" />
    <ellipse
       style="opacity:0;fill:none;fill-opacity:1;fill-rule:nonzero;stroke:#000600;stroke-width:0.34458953;stroke-miterlimit:4;stroke-dasharray:none;stroke-opacity:1"
       id="path849-0"
       cx="119.67671"
       cy="139.76192"
       rx="3.3456664"
       ry="2.8968196" />
    <ellipse
       style="opacity:0;fill:none;fill-opacity:1;fill-rule:nonzero;stroke:#000600;stroke-width:0.36233336;stroke-miterlimit:4;stroke-dasharray:none;stroke-opacity:1"
       id="path849-0-0"
       cx="94.116074"
       cy="139.57292"
       rx="3.6197765"
       ry="2.9819417" />
    <path
       style="fill:#ffffff;stroke:none;stroke-width:2.02030516"
       d="m 84.595338,959.7035 c 0,-1.07915 -7.694901,-1.93139 -17.438605,-1.93139 H 49.718128 l 1.145837,-8.54286 c 0.630211,-4.69856 2.113622,-8.86544 3.29647,-9.25973 1.182847,-0.39428 2.150632,-3.36853 2.150632,-6.60942 0,-4.54569 0.923568,-5.89257 4.04061,-5.89257 2.222336,0 4.04061,-0.31735 4.04061,-0.70523 0,-0.38785 2.328758,-17.88875 5.175016,-38.89087 12.928385,-95.39658 14.967949,-111.28366 14.997028,-116.81846 0.01697,-3.24601 1.384559,-7.39749 3.038902,-9.22552 3.518525,-3.88792 7.13718,-26.99013 4.815949,-30.74596 -0.986917,-1.59687 0.309729,-4.55629 3.417564,-7.80017 3.976381,-4.15046 5.262494,-8.10781 6.244214,-19.21335 0.68746,-7.77678 2.56191,-15.51263 4.22202,-17.42424 1.69176,-1.94804 3.45238,-9.39011 4.06264,-17.17259 0.71472,-9.11465 2.36894,-15.39463 4.91781,-18.66956 2.90563,-3.73334 3.73898,-7.75668 3.4226,-16.52406 -0.30681,-8.50184 0.59406,-13.10739 3.38167,-17.28843 2.08994,-3.13463 3.56302,-6.82544 3.2735,-8.20184 -0.28951,-1.37637 0.46771,-4.36 1.68272,-6.63027 2.96621,-5.54241 10.58722,-58.26918 9.21331,-63.74326 -0.70376,-2.804 0.32872,-5.62151 2.91902,-7.96571 3.07949,-2.78689 4.00794,-6.22335 4.00794,-14.83458 0,-9.57699 0.8465,-12.10318 5.81871,-17.36454 4.73287,-5.0081 6.24093,-9.09439 8.08122,-21.897 1.24438,-8.65692 2.26251,-19.79386 2.26251,-24.74874 0,-4.95485 0.78556,-9.00884 1.74569,-9.00884 1.99819,0 3.90725,-12.04801 5.60222,-35.35534 0.64645,-8.88934 1.88037,-17.52614 2.74204,-19.1929 2.22147,-4.29706 4.64578,-22.96478 4.98502,-38.38579 0.19571,-8.89654 1.64239,-15.73842 4.48543,-21.21321 5.97527,-11.5065 21.17811,-57.42668 19.76779,-59.70862 -0.64947,-1.05088 -0.21807,-1.91068 0.95868,-1.91068 1.17674,0 2.13953,-3.18198 2.13953,-7.07107 0,-3.88909 0.86532,-7.07107 1.92294,-7.07107 1.14972,0 1.49046,6.81673 0.84738,16.95277 -0.61694,9.72433 -0.2618,17.45569 0.83292,18.13226 1.90241,1.17575 58.20341,-137.65862 65.34056,-161.12531 2.06597,-6.79284 3.76327,-15.38107 3.77175,-19.08497 0.0101,-4.24359 0.89077,-6.44256 2.38214,-5.94545 1.55129,0.5171 2.44015,7.0137 2.57985,18.85619 0.21591,18.30122 24.89598,168.57901 27.68576,168.57969 2.08299,5e-4 5.72059,-11.99806 7.01549,-23.14045 1.44423,-12.42738 4.66898,-16.87823 5.11717,-7.0628 0.17496,3.83353 0.19253,8.33376 0.039,10.00051 -0.30652,3.3269 3.15826,30.36232 4.91574,38.35725 0.84534,3.84541 1.46652,4.31881 2.65109,2.02031 1.568,-3.0425 8.28374,-27.7893 12.05411,-44.41817 1.64204,-7.24204 1.92743,-7.653 1.40294,-2.0203 -0.36214,3.88909 0.0935,9.06974 1.01239,11.51256 0.91896,2.44283 8.55769,36.99003 16.97499,76.7716 8.4173,39.78154 16.0865,74.14837 17.04269,76.3707 1.60622,3.73308 1.92373,3.57932 4.17197,-2.0203 1.33839,-3.33351 2.79548,-10.98002 3.238,-16.99226 0.99838,-13.56463 2.8111,-16.04781 2.95838,-4.05259 0.0602,4.90766 2.58869,18.25883 5.61875,29.66925 4.33228,16.3143 6.03524,20.22018 7.97166,18.28376 3.60725,-3.60726 3.00302,-11.24736 -1.07307,-13.56789 -5.22014,-2.97184 -0.70339,-9.13887 7.27482,-9.93274 5.36538,-0.53389 6.36224,0.0497 6.36224,3.72467 0,2.69862 -1.5819,4.77144 -4.15488,5.44428 -2.59599,0.67886 -3.733,2.18591 -3.03045,4.01671 0.61843,1.6116 1.12442,3.68718 1.12442,4.61239 0,2.04267 45.7277,44.45296 47.93521,44.45765 0.85924,0.002 0.88265,-18.86276 0.0519,-41.92133 -0.83065,-23.05855 -1.59972,-45.5612 -1.70903,-50.00587 -0.1093,-4.44467 2.16512,-20.35457 5.05431,-35.35534 2.88922,-15.00076 4.82324,-28.41054 4.29784,-29.7995 -0.55306,-1.46205 0.63971,-2.52538 2.83279,-2.52538 2.62468,0 3.50179,1.09466 2.85596,3.56434 -1.26958,4.85484 2.50797,14.74532 4.04005,10.5778 0.61274,-1.66675 10.80227,-51.66931 22.64342,-111.11678 18.75227,-94.14406 21.36373,-109.71509 20.24523,-120.71323 -1.02064,-10.03749 -0.70929,-12.62691 1.5184,-12.62691 1.90184,0 3.48893,4.38222 4.93888,13.63706 1.50014,9.57524 13.45153,41.76892 40.12532,108.08632 20.89387,51.9471 38.59835,94.44927 39.3433,94.44927 2.43786,0 5.33407,-49.0853 3.56509,-60.42136 -0.41737,-2.67464 0.2471,-5.20704 1.4766,-5.62757 1.33686,-0.45724 2.69786,3.13942 3.38571,8.94724 1.02963,8.69352 15.10936,46.38498 23.21718,62.15245 2.17034,4.22068 3.22308,12.8096 3.46727,28.28805 0.21221,13.45131 1.36435,24.12123 2.91811,27.02443 1.41209,2.63852 2.78578,8.54621 3.05262,13.1282 0.26686,4.58201 1.70417,17.64957 3.19402,29.03904 2.13019,16.28477 3.38472,20.71089 5.87303,20.72112 2.67428,0.0101 3.2235,3.76815 3.54699,24.26509 0.32478,20.57863 0.99132,25.10674 4.40042,29.89438 2.41787,3.39558 4.57961,10.82837 5.42889,18.6664 0.77618,7.16326 2.53912,14.38781 3.91763,16.05456 1.37852,1.66675 3.11182,8.44702 3.85179,15.06725 0.74,6.62026 2.80445,13.64902 4.58769,15.61949 2.63426,2.91079 2.76673,4.15566 0.70642,6.63817 -4.16603,5.01976 -0.75814,28.47919 5.87703,40.45684 3.8126,6.88245 6.04601,14.5803 7.00846,24.15598 0.77693,7.72995 2.46465,15.32209 3.75049,16.87142 1.28585,1.54935 2.68899,7.4982 3.11812,13.21967 0.42913,5.72148 2.11219,13.58467 3.74015,17.47376 1.62794,3.88908 3.51313,12.98046 4.18929,20.20305 1.01326,10.82336 2.2028,14.04265 6.76632,18.31204 4.334,4.05467 4.95658,5.59091 2.86568,7.07107 -3.55303,2.51522 -0.24373,27.17664 4.0791,30.398 1.65548,1.23367 3.05832,5.32479 3.11743,9.09137 0.0592,3.76659 2.34226,24.12196 5.07369,45.23414 2.73146,21.11219 5.05651,39.74951 5.16677,41.41626 0.11031,1.66675 1.45291,17.12208 2.98359,34.34519 1.53068,17.2231 2.79384,32.38989 2.80699,33.70396 0.0141,1.31408 1.74086,2.93417 3.83931,3.60018 7.33221,2.32717 14.36738,10.7237 14.36738,17.14762 0,5.83675 -0.42083,6.15739 -8.08122,6.15739 -5.83644,0 -8.08122,0.8418 -8.08122,3.03046 0,2.51396 -4.39021,3.09995 -25.75889,3.43823 -26.38107,0.41762 -39.04549,0.11112 -40.12795,-0.97142 -0.33664,-0.33664 -2.46368,-29.39312 -4.72674,-64.56994 -4.51197,-70.13366 -6.30241,-78.93415 -18.67641,-91.79982 -8.64131,-8.98468 -27.89658,-18.83314 -36.8217,-18.83314 -14.70693,0 -32.13461,11.72205 -39.81746,26.78169 -7.78745,15.26468 -8.04644,26.39163 -2.13347,91.66397 l 5.5139,60.86694 -24.64099,1.40381 c -13.55255,0.7721 -28.79992,0.78014 -33.88303,0.0182 l -9.24204,-1.38593 -0.0893,-9.36705 c -0.25571,-26.80928 -6.01453,-115.42288 -7.91873,-121.849 -5.99855,-20.24346 -34.71698,-51.21571 -58.08264,-62.64116 -12.0994,-5.91642 -15.63997,-6.70466 -30.11566,-6.70466 -15.35029,0 -17.51572,0.56356 -33.70357,8.77156 -24.58768,12.4671 -46.90512,33.51183 -55.64373,52.47047 -11.09699,24.07525 -13.05057,37.82284 -13.25979,93.31131 -0.11475,30.43898 -0.96453,50.06898 -2.20694,50.98177 -1.11117,0.81636 -14.06637,1.49822 -28.78935,1.51523 -24.17487,0.0279 -26.76502,-0.31169 -26.72762,-3.5046 0.0228,-1.94455 1.37449,-18.99087 3.00379,-37.88073 3.46482,-40.17071 3.91207,-95.68585 0.85943,-106.67877 -2.76456,-9.95552 -10.11527,-17.7802 -24.99899,-26.61091 -14.24743,-8.45318 -25.59769,-9.32907 -38.69986,-2.9864 -12.39623,6.00089 -25.42292,18.22685 -30.71851,28.83022 -8.59031,17.20043 -13.73485,53.05731 -15.92138,110.97031 -0.82609,21.88004 -2.08602,34.46341 -3.49255,34.88143 -6.11277,1.81666 -57.758672,2.62246 -57.758672,0.90116 z M 251.01112,696.64768 c 0.66024,-3.6113 2.19434,-15.60294 3.40908,-26.64811 3.74937,-34.09119 -0.5756,-51.63259 -14.5066,-58.8366 -14.76892,-7.6373 -39.13367,1.81514 -46.27146,17.9513 -5.14462,11.63029 -7.99815,30.99536 -8.01629,54.40142 l -0.0153,19.69798 h 32.10004 32.10005 z m 367.2932,2.0203 c 1.53824,-8.53268 -1.95212,-53.00495 -5.11361,-65.15484 -3.70084,-14.2226 -10.88369,-21.85146 -23.86524,-25.34701 -16.4069,-4.41792 -32.1314,5.25587 -35.20897,21.66074 -1.6346,8.71318 0.10021,67.93654 2.08411,71.1465 0.91296,1.47719 11.58649,2.2403 31.33441,2.2403 29.4694,0 29.96296,-0.0729 30.7693,-4.54569 z M 416.24884,535.75749 c 11.58728,-7.34844 18.94546,-21.07997 16.96186,-31.6535 -1.64023,-8.74311 -11.93994,-20.76459 -21.05289,-24.57222 -6.34221,-2.64993 -7.5671,-2.5035 -16.19402,1.93594 -12.43508,6.39911 -18.42421,15.50921 -18.42421,28.02515 0,8.09932 1.10179,10.9873 6.56593,17.21063 6.61322,7.53204 16.87247,14.86423 20.81773,14.87821 1.17141,0.004 6.26793,-2.61673 11.3256,-5.82421 z m 46.64863,0.22892 c 6.82649,-5.99445 3.22471,-16.54351 -6.72689,-19.70204 -6.30083,-1.9998 -15.85249,2.79437 -17.33489,8.70075 -3.242,12.9171 13.27838,20.4704 24.06178,11.00129 z m -95.45942,-0.45806 c 8.47874,-8.47874 1.82957,-20.20306 -11.45767,-20.20306 -12.95842,0 -19.47962,11.69046 -11.46271,20.54905 4.64448,5.1321 17.63843,4.93595 22.92038,-0.34599 z M 265.15619,435.01817 c 2.60504,-13.46657 5.64156,-44.075 5.96503,-60.12822 0.33949,-16.84733 0.14566,-17.66262 -5.31615,-22.3673 -7.93895,-6.83837 -22.91576,-6.8664 -30.26361,-0.0566 -8.20098,7.6004 -13.38043,33.79425 -13.503,68.28805 l -0.0624,17.55566 7.57615,0.79248 c 4.16688,0.43589 13.64058,0.94533 21.05267,1.13212 13.19984,0.33265 13.49861,0.22555 14.55129,-5.21622 z m 326.4957,-16.29243 c -0.0737,-32.32274 -5.16571,-57.55779 -13.24433,-65.6364 -10.00388,-10.00388 -24.55729,-8.26381 -32.51958,3.88818 -5.40161,8.24387 -4.33583,40.71191 2.47878,75.51527 l 0.98896,5.05076 21.16809,-0.63506 21.16811,-0.63507 -0.04,-17.54768 z"
       id="path1401"
       inkscape:connector-curvature="0"
       transform="scale(0.26458333)" />
  </g>
</svg>
